<svg width="1280" height="720" viewBox="0 0 1280 720" fill="none" xmlns="http://www.w3.org/2000/svg">
  <defs>
    <linearGradient id="bg" x1="0" y1="0" x2="1" y2="1">
      <stop stop-color="#f7fbff" offset="0"/>
      <stop stop-color="#eaf1ff" offset="1"/>
    </linearGradient>
    <linearGradient id="bag" x1="0" y1="0" x2="0" y2="1">
      <stop stop-color="#fefefe" offset="0"/>
      <stop stop-color="#dfe7f3" offset="1"/>
    </linearGradient>
    <filter id="shadow" x="-10%" y="-10%" width="120%" height="120%">
      <feDropShadow dx="0" dy="8" stdDeviation="20" flood-color="#a6b8d6" flood-opacity="0.35"/>
    </filter>
  </defs>
  <rect width="1280" height="720" fill="url(#bg)"/>
  <rect x="120" y="120" width="1040" height="480" rx="28" fill="white" stroke="#d6deeb" stroke-width="2" filter="url(#shadow)"/>
  <rect x="340" y="140" width="600" height="440" rx="26" fill="url(#bag)" stroke="#c6d4ea" stroke-width="2"/>
  <rect x="390" y="220" width="500" height="320" rx="18" fill="#f7f9fd" stroke="#dce6f5" stroke-dasharray="10 8" stroke-width="3"/>
  <rect x="420" y="250" width="440" height="260" rx="14" fill="white" stroke="#d2dbeb"/>
  <path d="M520 220C520 184.772 548.772 156 584 156H696C731.228 156 760 184.772 760 220" stroke="#c2cee2" stroke-width="6" stroke-linecap="round"/>
  <circle cx="584" cy="220" r="10" fill="#00bfff"/>
  <circle cx="696" cy="220" r="10" fill="#00bfff"/>
  <rect x="430" y="390" width="420" height="70" rx="12" fill="#00bfff" fill-opacity="0.08"/>
  <text x="640" y="435" text-anchor="middle" fill="#0077c8" font-family="'Inter', system-ui" font-weight="700" font-size="32">Pré-visualização da sacola</text>
  <text x="640" y="475" text-anchor="middle" fill="#4b5563" font-family="'Inter', system-ui" font-weight="500" font-size="18">Use a aba Inserir Logo para posicionar</text>
  <rect x="470" y="285" width="340" height="170" rx="14" fill="#f0f7ff" stroke="#cdddf7" stroke-dasharray="8 6" stroke-width="2"/>
  <text x="640" y="365" text-anchor="middle" fill="#1f2937" font-family="'Inter', system-ui" font-weight="700" font-size="26">Sua logo ficará aqui</text>
</svg>
